<svg width="300" height="102" viewBox="0 0 300 102" fill="none" xmlns="http://www.w3.org/2000/svg">
<path d="M43.9091 42.5C43.5909 41.3939 43.1439 40.4167 42.5682 39.5682C41.9924 38.7045 41.2879 37.9773 40.4545 37.3864C39.6364 36.7803 38.697 36.3182 37.6364 36C36.5909 35.6818 35.4318 35.5227 34.1591 35.5227C31.7803 35.5227 29.6894 36.1136 27.8864 37.2955C26.0985 38.4773 24.7045 40.197 23.7045 42.4545C22.7045 44.697 22.2045 47.4394 22.2045 50.6818C22.2045 53.9242 22.697 56.6818 23.6818 58.9545C24.6667 61.2273 26.0606 62.9621 27.8636 64.1591C29.6667 65.3409 31.7955 65.9318 34.25 65.9318C36.4773 65.9318 38.3788 65.5379 39.9545 64.75C41.5455 63.947 42.7576 62.8182 43.5909 61.3636C44.4394 59.9091 44.8636 58.1894 44.8636 56.2045L46.8636 56.5H34.8636V49.0909H54.3409V54.9545C54.3409 59.0455 53.4773 62.5606 51.75 65.5C50.0227 68.4242 47.6439 70.6818 44.6136 72.2727C41.5833 73.8485 38.1136 74.6364 34.2045 74.6364C29.8409 74.6364 26.0076 73.6742 22.7045 71.75C19.4015 69.8106 16.8258 67.0606 14.9773 63.5C13.1439 59.9242 12.2273 55.6818 12.2273 50.7727C12.2273 47 12.7727 43.6364 13.8636 40.6818C14.9697 37.7121 16.5152 35.197 18.5 33.1364C20.4848 31.0758 22.7955 29.5076 25.4318 28.4318C28.0682 27.3561 30.9242 26.8182 34 26.8182C36.6364 26.8182 39.0909 27.2045 41.3636 27.9773C43.6364 28.7348 45.6515 29.8106 47.4091 31.2045C49.1818 32.5985 50.6288 34.2576 51.75 36.1818C52.8712 38.0909 53.5909 40.197 53.9091 42.5H43.9091ZM60.8845 74V39.0909H70.2708V45.1818H70.6345C71.2708 43.0152 72.339 41.3788 73.839 40.2727C75.339 39.1515 77.0663 38.5909 79.0208 38.5909C79.5057 38.5909 80.0284 38.6212 80.589 38.6818C81.1496 38.7424 81.642 38.8258 82.0663 38.9318V47.5227C81.6117 47.3864 80.983 47.2652 80.1799 47.1591C79.3769 47.053 78.642 47 77.9754 47C76.5511 47 75.2784 47.3106 74.1572 47.9318C73.0511 48.5379 72.1723 49.3864 71.5208 50.4773C70.8845 51.5682 70.5663 52.8258 70.5663 54.25V74H60.8845ZM86.4053 74V39.0909H96.0871V74H86.4053ZM91.2689 34.5909C89.8295 34.5909 88.5947 34.1136 87.5644 33.1591C86.5492 32.1894 86.0417 31.0303 86.0417 29.6818C86.0417 28.3485 86.5492 27.2045 87.5644 26.25C88.5947 25.2803 89.8295 24.7955 91.2689 24.7955C92.7083 24.7955 93.9356 25.2803 94.9508 26.25C95.9811 27.2045 96.4962 28.3485 96.4962 29.6818C96.4962 31.0303 95.9811 32.1894 94.9508 33.1591C93.9356 34.1136 92.7083 34.5909 91.2689 34.5909ZM118.949 74.6818C115.419 74.6818 112.366 73.9318 109.79 72.4318C107.229 70.9167 105.252 68.8106 103.858 66.1136C102.464 63.4015 101.767 60.2576 101.767 56.6818C101.767 53.0758 102.464 49.9242 103.858 47.2273C105.252 44.5152 107.229 42.4091 109.79 40.9091C112.366 39.3939 115.419 38.6364 118.949 38.6364C122.479 38.6364 125.525 39.3939 128.085 40.9091C130.661 42.4091 132.646 44.5152 134.04 47.2273C135.434 49.9242 136.131 53.0758 136.131 56.6818C136.131 60.2576 135.434 63.4015 134.04 66.1136C132.646 68.8106 130.661 70.9167 128.085 72.4318C125.525 73.9318 122.479 74.6818 118.949 74.6818ZM118.994 67.1818C120.6 67.1818 121.941 66.7273 123.017 65.8182C124.093 64.8939 124.903 63.6364 125.449 62.0455C126.009 60.4545 126.29 58.6439 126.29 56.6136C126.29 54.5833 126.009 52.7727 125.449 51.1818C124.903 49.5909 124.093 48.3333 123.017 47.4091C121.941 46.4848 120.6 46.0227 118.994 46.0227C117.373 46.0227 116.009 46.4848 114.903 47.4091C113.813 48.3333 112.987 49.5909 112.426 51.1818C111.881 52.7727 111.608 54.5833 111.608 56.6136C111.608 58.6439 111.881 60.4545 112.426 62.0455C112.987 63.6364 113.813 64.8939 114.903 65.8182C116.009 66.7273 117.373 67.1818 118.994 67.1818ZM160.328 39.0909V46.3636H139.305V39.0909H160.328ZM144.078 30.7273H153.759V63.2727C153.759 64.1667 153.896 64.8636 154.169 65.3636C154.441 65.8485 154.82 66.1894 155.305 66.3864C155.805 66.5833 156.381 66.6818 157.032 66.6818C157.487 66.6818 157.941 66.6439 158.396 66.5682C158.85 66.4773 159.199 66.4091 159.441 66.3636L160.964 73.5682C160.479 73.7197 159.797 73.8939 158.919 74.0909C158.04 74.303 156.972 74.4318 155.714 74.4773C153.381 74.5682 151.335 74.2576 149.578 73.5455C147.835 72.8333 146.479 71.7273 145.509 70.2273C144.54 68.7273 144.062 66.8333 144.078 64.5455V30.7273ZM166.9 74V27.4545H176.741V46.6591H196.718V27.4545H206.536V74H196.718V54.7727H176.741V74H166.9ZM236.188 59.1364V39.0909H245.869V74H236.574V67.6591H236.21C235.422 69.7045 234.112 71.3485 232.278 72.5909C230.46 73.8333 228.241 74.4545 225.619 74.4545C223.286 74.4545 221.233 73.9242 219.46 72.8636C217.688 71.803 216.301 70.2955 215.301 68.3409C214.316 66.3864 213.816 64.0455 213.801 61.3182V39.0909H223.483V59.5909C223.498 61.6515 224.051 63.2803 225.142 64.4773C226.233 65.6742 227.695 66.2727 229.528 66.2727C230.695 66.2727 231.786 66.0076 232.801 65.4773C233.816 64.9318 234.634 64.1288 235.256 63.0682C235.892 62.0076 236.203 60.697 236.188 59.1364ZM253.129 74V27.4545H262.811V44.9545H263.106C263.53 44.0152 264.144 43.0606 264.947 42.0909C265.765 41.1061 266.826 40.2879 268.129 39.6364C269.447 38.9697 271.083 38.6364 273.038 38.6364C275.583 38.6364 277.932 39.303 280.083 40.6364C282.235 41.9545 283.955 43.947 285.242 46.6136C286.53 49.2652 287.174 52.5909 287.174 56.5909C287.174 60.4848 286.545 63.7727 285.288 66.4545C284.045 69.1212 282.348 71.1439 280.197 72.5227C278.061 73.8864 275.667 74.5682 273.015 74.5682C271.136 74.5682 269.538 74.2576 268.22 73.6364C266.917 73.0152 265.848 72.2348 265.015 71.2955C264.182 70.3409 263.545 69.3788 263.106 68.4091H262.674V74H253.129ZM262.606 56.5455C262.606 58.6212 262.894 60.4318 263.47 61.9773C264.045 63.5227 264.879 64.7273 265.97 65.5909C267.061 66.4394 268.386 66.8636 269.947 66.8636C271.523 66.8636 272.856 66.4318 273.947 65.5682C275.038 64.6894 275.864 63.4773 276.424 61.9318C277 60.3712 277.288 58.5758 277.288 56.5455C277.288 54.5303 277.008 52.7576 276.447 51.2273C275.886 49.697 275.061 48.5 273.97 47.6364C272.879 46.7727 271.538 46.3409 269.947 46.3409C268.371 46.3409 267.038 46.7576 265.947 47.5909C264.871 48.4242 264.045 49.6061 263.47 51.1364C262.894 52.6667 262.606 54.4697 262.606 56.5455Z" fill="black"/>
</svg>
